<svg version="1" xmlns="http://www.w3.org/2000/svg" width="2021.333" height="2021.333" viewBox="0 0 1516.000000 1516.000000"><path d="M561.8 212.6c-.2.1-2.1.5-4.3.8-2.2.3-5.1.7-6.5 1-1.4.3-3.8.8-5.5 1.1-3.7.8-19.2 5.3-22 6.5-1.1.4-4.7 1.8-8 3.1-11.1 4.2-37.1 18.9-46 26.1-.5.5-4.9 3.9-9.6 7.6-38.7 30.5-77.5 75.4-116.4 134.7-10.3 15.6-27.6 43.6-33.7 54.5-1.4 2.5-4.8 8.5-7.7 13.4-2.8 4.9-5.1 9.1-5.1 9.3 0 .3-1.7 3.5-3.9 7.1-8.4 14.7-37.1 71.1-37.1 73.1 0 .6-.4 1.1-1 1.1-.5 0-1 .5-1 1.1 0 .7-1.5 4.4-3.4 8.3-8.9 18.5-16.6 34.9-16.6 35.2 0 .1-1.8 4.2-4 8.9s-4 8.8-4 9c0 .1-1.7 4.1-3.9 8.7-4.2 9-21.6 49.9-25.1 58.8-1.1 3-2.7 6.9-3.5 8.6-1.2 2.6-17.4 43.5-27.5 69.4-3.6 9.3-11.6 30.8-14 37.5-2.7 7.7-10 27.8-10.7 29.5-.3.8-.7 1.9-.9 2.5-.1.5-3.7 10.7-7.9 22.5-10.4 29.3-26.7 78.2-42.7 128-6.1 19-22.4 71.9-26.8 86.5-10.3 35-19.8 67.7-20.4 70.6-.3.8-1.8 6.5-3.6 12.5-3.7 12.7-10 35-10.5 37.3-.2.9-1.8 6.5-3.5 12.6-4 14-10.1 37.1-23.1 87.7-2.1 7.9-1.9 10.8.6 8.8.7-.6 1.5-2.1 1.8-3.3.5-2.2 10.1-30 17.5-50.2 9.4-26.1 39.9-104.4 44.7-115 .7-1.7 2.2-5.3 3.3-8 3.5-8.9 21.3-50.8 24.3-57.3 1.6-3.5 2.9-6.5 2.9-6.8 0-.5 19.3-43.5 25.8-57.4 8.7-18.7 16.2-34.1 33.7-69.5 18-36.2 23.2-46.1 35.6-68.8 3.4-6.2 7.5-13.7 9.2-16.7 22.2-40.5 50.5-86.2 77.7-125.5 8.1-11.7 10.9-15.5 25.9-35.9 7.3-9.8 25.4-32.7 28.2-35.6.8-.8 4-4.7 7.3-8.5 19.6-23.3 44.9-49 67.5-68.5 27.3-23.6 63.9-47 89.1-57 3-1.2 6.4-2.6 7.5-3.1 5.8-2.6 24.5-8 35.6-10.3 54.9-11.2 108.5 1.3 162.5 38 5.4 3.7 12.8 9 16.4 11.8 3.6 2.8 7.4 5.8 8.4 6.6 10.5 8.2 30.7 27.1 45.7 42.6 8.4 8.7 30.6 34.1 32.7 37.4.9 1.4 1.9 2.7 2.2 3 3.2 2.9 24.3 31 36.7 49 7 10.2 30.1 45.9 32.8 50.7.6 1 4.2 7.2 8.2 13.8 7.7 13.1 16.6 28.5 17.7 30.6.3.8 1.9 3.6 3.4 6.4 10.1 18.3 32.3 61.6 36.6 71.5 3.6 8.3 4.2 9.5 12.4 27.7l6.9 15.1-15.1 5.8c-8.3 3.1-34.4 13.1-58.1 22.2-23.6 9.1-45 17.3-47.5 18.2-10.8 4.1-51.7 20.2-53.5 21-1.1.5-8.5 3.5-16.5 6.6-8 3.1-22.1 8.7-31.5 12.4-9.3 3.8-28.5 11.4-42.5 17-38.9 15.6-47.3 19-49.5 20-1.1.5-15 6.1-31 12.6-26 10.4-44.3 17.9-50 20.4-1.1.4-7.8 3.2-15 6.1-11.8 4.7-17.2 6.9-24.5 10.1-4.1 1.7-5.1 2.2-38.5 15.9-17.6 7.2-33.3 13.7-35 14.4-1.6.8-16.2 6.8-32.3 13.5-32.1 13.2-52 21.5-56.7 23.6-1.6.7-17.2 7.2-34.5 14.5-36.3 15.1-75.1 31.5-79.5 33.4-4.7 2.1-14.1 6-25 10.5-5.5 2.3-11.3 4.7-13 5.5-1.6.7-7.5 3.2-13 5.5s-11.3 4.7-13 5.5c-1.6.7-10.6 4.5-20 8.5-22.4 9.5-22.3 9.4-27.7 11.9-2.6 1.1-5 2.1-5.2 2.1-.3 0-3.5 1.4-7.3 3.1-3.7 1.6-7.7 3.4-8.8 3.9-1.1.4-3.6 1.5-5.5 2.3-3.2 1.4-49.1 21-57 24.4-1.9.8-4.8 2.1-6.5 2.8-2.8 1.3-35.9 15.4-41.5 17.7-1.4.6-2 1.2-1.3 1.5 1 .4 8.3-2.3 17-6.3 1.7-.8 3.4-1.4 3.7-1.4.4 0 2.1-.6 3.9-1.3 1.8-.8 3.4-1.4 3.7-1.3.3 0 1.9-.7 3.5-1.7 1.7-.9 10.4-4.6 19.5-8.3 9.1-3.6 33.8-13.6 55-22.1 21.2-8.5 44.1-17.7 51-20.5 6.9-2.7 13.4-5.3 14.5-5.8 1.1-.5 5.6-2.3 10-4 4.4-1.7 8.9-3.5 10-4 1.1-.5 12.8-5.2 26-10.4 13.2-5.1 33.9-13.3 46-18.1 44.6-17.5 49.3-19.4 65-25.5 8.8-3.4 16.9-6.5 18-7 2.9-1.3 13.9-5.6 38-14.9 7.2-2.8 19.3-7.5 27-10.5 26.1-10.1 99.6-38.1 129-49.1 3.3-1.2 17-6.4 30.5-11.5s27-10.1 30-11.2c3-1.1 11.6-4.2 19-7s17.6-6.5 22.5-8.3c5-1.8 24.1-8.8 42.5-15.5 68.2-24.8 123.8-44.3 186-65 65.7-21.9 98.1-32.3 98.7-31.6.5.5 8 17.6 13.5 30.6 2.2 5.2 4.7 11.1 5.5 13 3.3 7.5 4.3 9.9 8.8 21 6.3 15.3 6.7 16.4 18.5 47 5.6 14.6 10.6 27.4 11 28.5.9 2.1 13.6 37.6 21 59 2.3 6.6 5.4 15.6 7 20 5.3 14.9 27.8 84.6 32.1 99.5.6 1.9 1.3 4.2 1.6 5 .3.8.7 1.9.9 2.5 6.9 23 9.9 33 11.2 37.5.9 3 1.5 6.1 1.4 6.8-.6 2.7 2.9-.6 26.1-24.3 12.9-13.2 33.3-34 45.3-46.2 37.5-38 58.4-59.4 73.5-75.4 8.1-8.5 17.5-18.3 20.8-21.9 3.4-3.6 10.3-11 15.4-16.4 5.1-5.4 11.2-12 13.6-14.5 14.1-14.9 38.8-42.1 45.6-50.3 1.7-2 6.7-7.4 11-12.1 4.4-4.6 9.3-9.9 10.9-11.8 1.6-1.9 4.3-5 6-6.9 1.7-2 5.1-6 7.6-9 2.5-2.9 7.4-8.8 10.9-12.9 3.4-4.2 7.1-8.5 8-9.6 5.9-7.2 33.8-42.4 38.7-49 3.2-4.4 6.2-8.2 6.5-8.5 1.7-1.4 26.7-38 34.1-49.9 21.7-34.7 32.2-61.8 32.2-82.6-.1-8.8-.4-10.8-2.9-16.2-7.4-16.6-26.2-24.5-58.5-24.6-10-.1-28.4.9-33 1.8-.8.1-4 .6-7 .9-3 .4-6.6.8-8 1.1-1.4.2-4.3.6-6.5 1-8.3 1.2-26.6 4.8-41.5 8.1-8.5 2-16.3 3.7-17.3 3.9-.9.2-4.5 1.1-8 2-3.4.9-7.2 1.8-8.3 2.1-4.8.9-50.8 13.8-69.7 19.4-50.6 15.2-129.6 41.6-183.2 61-9.3 3.4-20.6 7.5-25 9-6.8 2.3-34.6 12.5-39.6 14.5-1.3.5-1.8-.2-2.3-2.8-1.1-5.9-7.4-27.3-14.7-50.2-10.5-32.7-21-64.7-22-67-.4-1.1-4.5-12.6-9-25.5-11.4-32.8-14.1-40.4-20.4-57.5-3.1-8.3-5.8-15.5-5.9-16-.2-.6-.8-2.3-1.4-3.8-.7-1.6-1.2-3.1-1.2-3.3 0-.6-25.3-64.1-27.7-69.4-1.7-4-1.6-3.7-11.1-26C854 477.3 808.8 395.6 765 336.5c-24.8-33.4-49-58.8-80.5-84.3-1.1-.9-6.9-4.9-12.9-8.9-22.5-14.9-48.3-25.4-73.1-29.7-6.7-1.2-35.8-2-36.7-1zm743.9 653.8c3.4.4 7.2.9 8.5 1.1 1.3.3 3.9.8 5.8 1.1 5.7 1 15.2 4.3 20.8 7.2 17.5 9.1 25.7 23.1 26.1 44.5.4 23.6-11.5 57.3-34.2 96.7-8.6 14.9-40.4 63.2-53.9 81.8-16.9 23.3-60.6 79.6-68.2 87.8-.6.7-1.8 2-2.6 3.1-7.4 9.2-41.7 49.8-46 54.4-.8.8-4 4.4-7 7.9-3 3.6-12.2 14.1-20.5 23.5-23.2 26.5-24.8 28-24.3 23.7.2-.9-2.1-11.6-5.1-23.7-5-20.9-10.5-43.8-13.6-57-.8-3.3-3.5-15.2-6-26.5s-6.1-26.4-7.9-33.5c-3.3-12.7-4.2-16.8-5.3-23-.3-1.7-2.7-11.8-5.5-22.5-2.7-10.7-5.4-21.1-5.8-23-1.4-5.8-9.7-38-17-65.5-5.6-21-13.4-50.5-15.4-58.5-.2-.8-3.2-11.1-6.6-22.8-3.4-11.8-5.8-21.7-5.4-22.1.8-.7 13.4-4.7 17.6-5.6.9-.2 6.9-1.9 13.5-3.8 22.3-6.5 58.3-16.3 67.2-18.2.9-.2 4.1-1 7.1-1.8 5-1.3 11.7-2.9 36.5-8.7 7.2-1.7 14.5-3.2 21.5-4.5 1.4-.3 3.6-.7 5-1 6.3-1.3 7.6-1.6 27.5-4.9 8.3-1.4 16.6-2.8 18.5-3 1.9-.2 6.4-.7 10-1.1 3.6-.4 7.3-.9 8.3-1.1 1-.2 6.7-.6 12.5-1 5.9-.3 10.8-.7 10.9-.9.6-.4 27.1.3 33 .9z"/></svg>